<?xml version="1.0" encoding="utf-8"?>
<!-- Generator: Adobe Illustrator 23.0.1, SVG Export Plug-In . SVG Version: 6.00 Build 0)  -->
<svg version="1.1" xmlns="http://www.w3.org/2000/svg" xmlns:xlink="http://www.w3.org/1999/xlink" x="0px" y="0px"
	 viewBox="0 0 401.62 278.77" style="enable-background:new 0 0 401.62 278.77;" xml:space="preserve">
<style type="text/css">
	.st0{fill:#F1D21B;}
	.st1{fill:none;stroke:#000000;stroke-miterlimit:10;stroke-dasharray:6.015,6.015;}
	.st2{fill:none;}
	.st3{font-family:'PTSans-Bold';}
	.st4{font-size:14.0494px;}
	.st5{fill:#B29D46;stroke:#000000;stroke-miterlimit:10;}
	.st6{fill:#B26044;stroke:#000000;stroke-miterlimit:10;}
	.st7{fill:#EDCE7A;stroke:#000000;stroke-miterlimit:10;}
	.st8{fill:#A7AF45;stroke:#000000;stroke-miterlimit:10;}
	.st9{font-size:10px;}
	.st10{fill:#D3C562;stroke:#000000;stroke-miterlimit:10;}
	.st11{fill:#D39448;stroke:#000000;stroke-miterlimit:10;}
	.st12{font-family:'PTSans-Regular';}
	.st13{font-size:8px;}
	.st14{font-family:'PTSans-Italic';}
	.st15{fill:#D14B15;stroke:#000000;stroke-miterlimit:10;}
	.st16{fill:#EA8F3D;stroke:#000000;stroke-miterlimit:10;}
	.st17{fill:#6D3D38;stroke:#000000;stroke-miterlimit:10;}
	.st18{fill:#C44E4B;stroke:#000000;stroke-miterlimit:10;}
	.st19{fill:#896349;stroke:#000000;stroke-miterlimit:10;}
	.st20{fill:none;stroke:#000000;stroke-miterlimit:10;}
</style>
<g id="Layer_1">
	<g>
		<path class="st0" d="M371.09,269.35H28.78c-6.6,0-12-5.4-12-12V23.8c0-6.6,5.4-12,12-12h342.32c6.6,0,12,5.4,12,12v233.55
			C383.09,263.95,377.69,269.35,371.09,269.35z"/>
		<path class="st1" d="M371.09,269.35H28.78c-6.6,0-12-5.4-12-12V23.8c0-6.6,5.4-12,12-12h342.32c6.6,0,12,5.4,12,12v233.55
			C383.09,263.95,377.69,269.35,371.09,269.35z"/>
	</g>
	<rect x="158.78" y="19.78" class="st2" width="97.6" height="15.23"/>
	<text transform="matrix(0.8541 0 0 1 158.7784 29.614)" class="st3 st4">Define the Design</text>
	<path class="st5" d="M174.26,251.02H46.7c-6.6,0-12-5.4-12-12V53.34c0-6.6,5.4-12,12-12h127.56c6.6,0,12,5.4,12,12v185.68
		C186.26,245.62,180.86,251.02,174.26,251.02z"/>
	<path class="st6" d="M357.38,251.02H226.64c-6.6,0-12-5.4-12-12V52.01c0-6.6,5.4-12,12-12h130.74c6.6,0,12,5.4,12,12v187.01
		C369.38,245.62,363.98,251.02,357.38,251.02z"/>
	<rect x="270.23" y="47.83" class="st2" width="53.58" height="15.23"/>
	<text transform="matrix(0.8541 0 0 1 270.2342 57.6629)" class="st3 st4">Back-End</text>
	<rect x="82.24" y="47.83" class="st2" width="52.73" height="15.23"/>
	<text transform="matrix(0.8541 0 0 1 82.235 57.6629)" class="st3 st4">Front-End</text>
	<path class="st7" d="M214.56,212.93h-34.84c-6.6,0-12-5.4-12-12v-15.17c0-6.6,5.4-12,12-12h34.84c6.6,0,12,5.4,12,12v15.17
		C226.56,207.53,221.16,212.93,214.56,212.93z"/>
	<rect x="182.74" y="188.73" class="st2" width="29.83" height="15.23"/>
	<text transform="matrix(0.8541 0 0 1 182.735 198.5673)" class="st3 st4">Api.js</text>
</g>
<g id="Front-End">
	<path class="st8" d="M146.78,196.35H56.23c-6.6,0-12-5.4-12-12v-58.71c0-6.6,5.4-12,12-12h90.55c6.6,0,12,5.4,12,12v58.71
		C158.78,190.95,153.38,196.35,146.78,196.35z"/>
	<rect x="81.47" y="119.48" class="st2" width="43.19" height="11.66"/>
	<text transform="matrix(0.8541 0 0 1 81.4736 126.4793)" class="st3 st9">index.html</text>
	<path class="st10" d="M146.78,245.96H79.45c-6.6,0-12-5.4-12-12v-21.55c0-6.6,5.4-12,12-12h67.33c6.6,0,12,5.4,12,12v21.55
		C158.78,240.56,153.38,245.96,146.78,245.96z"/>
	<path class="st11" d="M123.56,108.6H56.23c-6.6,0-12-5.4-12-12V75.05c0-6.6,5.4-12,12-12h67.33c6.6,0,12,5.4,12,12V96.6
		C135.56,103.2,130.16,108.6,123.56,108.6z"/>
	<rect x="73.83" y="69.5" class="st2" width="43.19" height="11.66"/>
	<text transform="matrix(0.8541 0 0 1 73.8321 76.4982)" class="st3 st9">style.css</text>
	<rect x="100.43" y="205.1" class="st2" width="43.19" height="11.66"/>
	<text transform="matrix(0.8541 0 0 1 100.4286 212.0998)" class="st3 st9">main.js</text>
	<rect x="76.45" y="219.76" class="st2" width="74.05" height="19.82"/>
	<text transform="matrix(0.8541 0 0 1 80.5201 225.3592)"><tspan x="0" y="0" class="st12 st13">All JS files in src folder </tspan><tspan x="1.64" y="9.6" class="st12 st13">compiled by webpack</tspan></text>
	<rect x="56.97" y="127.76" class="st2" width="102.53" height="65.59"/>
	<text transform="matrix(0.8541 0 0 1 56.9722 133.3592)"><tspan x="0" y="0" class="st12 st13">...</tspan><tspan x="0" y="9.6" class="st12 st13">&lt;body&gt;</tspan><tspan x="0" y="19.2" class="st12 st13">-loading page</tspan><tspan x="0" y="28.8" class="st12 st13">-main: </tspan><tspan x="23.75" y="28.8" class="st14 st13">where all screens render</tspan><tspan x="0" y="38.4" class="st14 st13">-</tspan><tspan x="2.74" y="38.4" class="st12 st13">footer</tspan><tspan x="0" y="48" class="st12 st13">&lt;/body&gt;</tspan><tspan x="0" y="57.6" class="st12 st13">...</tspan></text>
	<path class="st15" d="M311.81,179.37h-78.04c-6.6,0-12-5.4-12-12v-32.43c0-6.6,5.4-12,12-12h78.04c6.6,0,12,5.4,12,12v32.43
		C323.81,173.97,318.41,179.37,311.81,179.37z"/>
	<path class="st16" d="M290.82,116.08h-52.26c-6.6,0-12-5.4-12-12V86.43c0-6.6,5.4-12,12-12h52.26c6.6,0,12,5.4,12,12v17.65
		C302.82,110.68,297.42,116.08,290.82,116.08z"/>
	<path class="st17" d="M349.48,226.91h-51.34c-6.6,0-12-5.4-12-12v-17.58c0-6.6,5.4-12,12-12h51.34c6.6,0,12,5.4,12,12v17.58
		C361.48,221.51,356.08,226.91,349.48,226.91z"/>
	<rect x="256.38" y="125.81" class="st2" width="43.19" height="11.66"/>
	<text transform="matrix(0.8541 0 0 1 256.3792 132.8097)" class="st3 st9">server.js</text>
	<rect x="310.72" y="191.32" class="st2" width="43.19" height="11.66"/>
	<text transform="matrix(0.8541 0 0 1 310.7224 198.3194)" class="st3 st9">Routers</text>
	<rect x="250.13" y="78.11" class="st2" width="43.19" height="11.66"/>
	<text transform="matrix(0.8541 0 0 1 250.1348 85.1098)" class="st3 st9">config.js</text>
	<path class="st18" d="M352.12,116.37h-27.68c-6.6,0-12-5.4-12-12V86.43c0-6.6,5.4-12,12-12h27.68c6.6,0,12,5.4,12,12v17.94
		C364.12,110.97,358.72,116.37,352.12,116.37z"/>
	<rect x="329.54" y="78.4" class="st2" width="17.49" height="11.66"/>
	<text transform="matrix(0.8541 0 0 1 329.5392 85.3981)" class="st3 st9">.env</text>
	<rect x="312.35" y="87.83" class="st2" width="51.87" height="31.61"/>
	<text transform="matrix(0.8541 0 0 1 327.4294 93.4326)"><tspan x="0" y="0" class="st12 st13">Defines </tspan><tspan x="-16.02" y="7" class="st12 st13">individual enviro </tspan><tspan x="-2.66" y="14" class="st12 st13">variables</tspan></text>
	<rect x="235.86" y="89.61" class="st2" width="58.93" height="31.61"/>
	<text transform="matrix(0.8541 0 0 1 240.4271 95.2097)"><tspan x="0" y="0" class="st12 st13">Defines variables </tspan><tspan x="-2.34" y="7" class="st12 st13">MongoDB variable</tspan></text>
	<rect x="227.56" y="137.47" class="st2" width="38.77" height="38.08"/>
	<text transform="matrix(0.8541 0 0 1 234.5937 143.0705)"><tspan x="0" y="0" class="st12 st13">-express</tspan><tspan x="6.02" y="7" class="st12 st13">-cors</tspan><tspan x="-4.72" y="14" class="st12 st13">-mongoose</tspan><tspan x="-7.33" y="21" class="st12 st13">-body-parser</tspan><tspan x="5.32" y="28" class="st12 st13">-path</tspan></text>
	<rect x="279.39" y="136.34" class="st2" width="35.27" height="38.08"/>
	<text transform="matrix(0.8541 0 0 1 284.7059 141.9452)"><tspan x="0" y="0" class="st12 st13">contains </tspan><tspan x="-4.05" y="7" class="st12 st13">paths from </tspan><tspan x="-2.94" y="14" class="st12 st13">where API </tspan><tspan x="-0.03" y="21" class="st12 st13">requests </tspan><tspan x="7.74" y="28" class="st12 st13">info</tspan></text>
	<rect x="291.71" y="203.56" class="st2" width="66.21" height="17.78"/>
	<text transform="matrix(0.8541 0 0 1 304.1885 209.1648)"><tspan x="0" y="0" class="st12 st13">-designRouter</tspan><tspan x="-0.49" y="7" class="st12 st13">-uploadRouter</tspan></text>
	<path class="st19" d="M270.76,247.13h-34.52c-6.6,0-12-5.4-12-12v-10.2c0-6.6,5.4-12,12-12h34.52c6.6,0,12,5.4,12,12v10.2
		C282.76,241.73,277.36,247.13,270.76,247.13z"/>
	<rect x="238.86" y="215.93" class="st2" width="32.08" height="11.66"/>
	<text transform="matrix(0.8541 0 0 1 238.8633 222.9287)" class="st3 st9">Models</text>
	<rect x="221.8" y="227.32" class="st2" width="66.21" height="29.56"/>
	<text transform="matrix(0.8541 0 0 1 230.6641 232.9205)"><tspan x="0" y="0" class="st12 st13">defines Schemas</tspan><tspan x="7.2" y="7" class="st12 st13">for database</tspan></text>
</g>
<g id="Arrows">
	<g>
		<g>
			<line class="st20" x1="67.45" y1="103.2" x2="67.45" y2="117.45"/>
			<g>
				<path d="M63.69,103.39c0-2.08,1.68-3.76,3.76-3.76c2.08,0,3.76,1.68,3.76,3.76c0,2.08-1.68,3.76-3.76,3.76
					C65.38,107.15,63.69,105.46,63.69,103.39z"/>
			</g>
			<g>
				<polygon points="62.47,116 67.45,124.63 72.44,116 				"/>
			</g>
		</g>
	</g>
	<g>
		<g>
			<line class="st20" x1="89.89" y1="209.36" x2="89.89" y2="192.11"/>
			<g>
				<path d="M93.65,209.17c0,2.08-1.68,3.76-3.76,3.76s-3.76-1.68-3.76-3.76c0-2.08,1.68-3.76,3.76-3.76S93.65,207.09,93.65,209.17z
					"/>
			</g>
			<g>
				<polygon points="94.88,193.56 89.89,184.93 84.91,193.56 				"/>
			</g>
		</g>
	</g>
	<g>
		<g>
			<line class="st20" x1="179.13" y1="225.59" x2="160.41" y2="225.59"/>
			<g>
				<polygon points="161.87,220.6 153.23,225.59 161.87,230.57 				"/>
			</g>
		</g>
	</g>
	<g>
		<g>
			<line class="st20" x1="179.13" y1="207.53" x2="179.13" y2="226.09"/>
			<g>
				<path d="M175.37,207.72c0-2.08,1.68-3.76,3.76-3.76s3.76,1.68,3.76,3.76c0,2.08-1.68,3.76-3.76,3.76
					S175.37,209.79,175.37,207.72z"/>
			</g>
		</g>
	</g>
	<g>
		<g>
			<line class="st20" x1="218.7" y1="200.92" x2="240.02" y2="200.92"/>
			<g>
				<path d="M218.89,204.68c-2.08,0-3.76-1.68-3.76-3.76s1.68-3.76,3.76-3.76c2.08,0,3.76,1.68,3.76,3.76
					S220.97,204.68,218.89,204.68z"/>
			</g>
		</g>
	</g>
	<g>
		<g>
			<line class="st20" x1="239.57" y1="201.15" x2="239.57" y2="180.48"/>
			<g>
				<polygon points="244.56,181.93 239.57,173.3 234.58,181.93 				"/>
			</g>
		</g>
	</g>
	<g>
		<g>
			<line class="st20" x1="314.77" y1="89.33" x2="298.33" y2="89.33"/>
			<g>
				<path d="M314.58,85.57c2.08,0,3.76,1.68,3.76,3.76s-1.68,3.76-3.76,3.76c-2.08,0-3.76-1.68-3.76-3.76S312.5,85.57,314.58,85.57z
					"/>
			</g>
			<g>
				<polygon points="299.79,84.34 291.15,89.33 299.79,94.31 				"/>
			</g>
		</g>
	</g>
	<g>
		<g>
			<line class="st20" x1="238.57" y1="109.67" x2="238.57" y2="123.92"/>
			<g>
				<path d="M234.81,109.86c0-2.08,1.68-3.76,3.76-3.76s3.76,1.68,3.76,3.76c0,2.08-1.68,3.76-3.76,3.76
					S234.81,111.93,234.81,109.86z"/>
			</g>
			<g>
				<polygon points="233.58,122.47 238.57,131.1 243.56,122.47 				"/>
			</g>
		</g>
	</g>
	<g>
		<g>
			<line class="st20" x1="350.01" y1="195.36" x2="350.01" y2="159.96"/>
			<g>
				<path d="M353.77,195.17c0,2.08-1.68,3.76-3.76,3.76s-3.76-1.68-3.76-3.76c0-2.08,1.68-3.76,3.76-3.76
					S353.77,193.09,353.77,195.17z"/>
			</g>
		</g>
	</g>
	<g>
		<g>
			<line class="st20" x1="350.52" y1="160.4" x2="319.53" y2="160.4"/>
			<g>
				<polygon points="320.99,155.41 312.35,160.4 320.99,165.39 				"/>
			</g>
		</g>
	</g>
	<g>
		<g>
			<line class="st20" x1="271.73" y1="221.01" x2="271.73" y2="201.15"/>
			<g>
				<path d="M275.49,220.83c0,2.08-1.68,3.76-3.76,3.76s-3.76-1.68-3.76-3.76c0-2.08,1.68-3.76,3.76-3.76
					S275.49,218.75,275.49,220.83z"/>
			</g>
		</g>
	</g>
	<g>
		<g>
			<line class="st20" x1="270.87" y1="201.15" x2="294.24" y2="201.15"/>
			<g>
				<polygon points="292.78,206.13 301.42,201.15 292.78,196.16 				"/>
			</g>
		</g>
	</g>
</g>
</svg>
