<?xml version="1.0" encoding="utf-8"?>
<!-- Generator: Adobe Illustrator 23.0.1, SVG Export Plug-In . SVG Version: 6.00 Build 0)  -->
<svg version="1.1" xmlns="http://www.w3.org/2000/svg" xmlns:xlink="http://www.w3.org/1999/xlink" x="0px" y="0px"
	 viewBox="0 0 367.32 518.53" style="enable-background:new 0 0 367.32 518.53;" xml:space="preserve">
<style type="text/css">
	.st0{fill:#B29D46;}
	.st1{fill:none;stroke:#000000;stroke-miterlimit:10;stroke-dasharray:5.9829,5.9829;}
	.st2{fill:none;}
	.st3{font-family:'PTSans-Bold';}
	.st4{font-size:14.0494px;}
	.st5{fill:#EDC624;stroke:#000000;stroke-miterlimit:10;}
	.st6{fill:#B26044;stroke:#000000;stroke-miterlimit:10;}
	.st7{fill:#EA8F3D;stroke:#000000;stroke-miterlimit:10;}
	.st8{fill:#A7AF45;stroke:#000000;stroke-miterlimit:10;}
	.st9{fill:#D14B15;stroke:#000000;stroke-miterlimit:10;}
	.st10{font-family:'PTSans-Regular';}
	.st11{font-size:8px;}
	.st12{fill:#EDCE7A;stroke:#000000;stroke-miterlimit:3;}
	.st13{fill:#D3C562;stroke:#000000;stroke-miterlimit:10;}
	.st14{fill:none;stroke:#000000;stroke-miterlimit:10;}
</style>
<g id="Structure">
	<g>
		<path class="st0" d="M354.82,518.03H12.5c-6.6,0-12-5.4-12-12V12.5c0-6.6,5.4-12,12-12h342.32c6.6,0,12,5.4,12,12v493.53
			C366.82,512.63,361.42,518.03,354.82,518.03z"/>
		<path class="st1" d="M354.82,518.03H12.5c-6.6,0-12-5.4-12-12V12.5c0-6.6,5.4-12,12-12h342.32c6.6,0,12,5.4,12,12v493.53
			C366.82,512.63,361.42,518.03,354.82,518.03z"/>
	</g>
	<rect x="161.21" y="8.48" class="st2" width="53.37" height="15.23"/>
	<text transform="matrix(0.8541 0 0 1 161.2136 18.3183)" class="st3 st4">Front-End</text>
</g>
<g id="Categories">
	<path class="st5" d="M119.35,96.7H30.42c-6.6,0-12-5.4-12-12V42.05c0-6.6,5.4-12,12-12h88.93c6.6,0,12,5.4,12,12V84.7
		C131.35,91.3,125.95,96.7,119.35,96.7z"/>
	<path class="st6" d="M341.11,96.7H151.11c-6.6,0-12-5.4-12-12V40.71c0-6.6,5.4-12,12-12h189.99c6.6,0,12,5.4,12,12V84.7
		C353.11,91.3,347.71,96.7,341.11,96.7z"/>
	<rect x="223.56" y="36.53" class="st2" width="69.15" height="15.23"/>
	<text transform="matrix(0.8541 0 0 1 223.5578 46.3672)" class="st3 st4">index.js</text>
	<rect x="59.07" y="36.53" class="st2" width="38.22" height="15.23"/>
	<text transform="matrix(0.8541 0 0 1 59.0698 46.3672)" class="st3 st4">utils.js</text>
	<path class="st7" d="M341.11,370.72H30.89c-6.6,0-12-5.4-12-12V118.63c0-6.6,5.4-12,12-12h310.21c6.6,0,12,5.4,12,12v240.09
		C353.11,365.32,347.71,370.72,341.11,370.72z"/>
	<rect x="165.83" y="116.92" class="st2" width="43.66" height="15.23"/>
	<text transform="matrix(0.8541 0 0 1 165.8258 126.7589)" class="st3 st4">Screens</text>
	<path class="st8" d="M279.11,491.31H99.83c-6.6,0-12-5.4-12-12v-71.73c0-6.6,5.4-12,12-12h179.27c6.6,0,12,5.4,12,12v71.73
		C291.11,485.91,285.71,491.31,279.11,491.31z"/>
	<rect x="152.34" y="409.75" class="st2" width="99.23" height="15.23"/>
	<text transform="matrix(0.8541 0 0 1 152.3423 419.5811)" class="st3 st4">localStorage.js</text>
	<path class="st9" d="M182.56,364.51h-59.31c-6.6,0-12-5.4-12-12v-24.07c0-6.6,5.4-12,12-12h59.31c6.6,0,12,5.4,12,12v24.07
		C194.56,359.11,189.16,364.51,182.56,364.51z"/>
	<rect x="111.16" y="333.97" class="st2" width="83.4" height="31.61"/>
	<text transform="matrix(0.8541 0 0 1 125.3458 339.5736)"><tspan x="0" y="0" class="st10 st11">User checks all the</tspan><tspan x="-4.28" y="7" class="st10 st11">information that they</tspan><tspan x="-8.22" y="14" class="st10 st11">have provided and then</tspan><tspan x="17.04" y="21" class="st10 st11">submit it</tspan></text>
	<rect x="111.21" y="324.78" class="st2" width="83.4" height="8.69"/>
	<text transform="matrix(0.8541 0 0 1 116.8663 330.3834)" class="st3 st11">SUBMIT DESIGN SCREEN</text>
</g>
<g id="Screens">
	<path class="st12" d="M111.72,66.47H40c-2.67,0-4.86-2.19-4.86-4.86v0c0-2.67,2.19-4.86,4.86-4.86h71.72
		c2.67,0,4.86,2.19,4.86,4.86v0C116.59,64.28,114.4,66.47,111.72,66.47z"/>
	<rect x="149.97" y="62.21" class="st2" width="190.67" height="18.07"/>
	<text transform="matrix(0.8541 0 0 1 154.9514 67.8115)"><tspan x="0" y="0" class="st3 st11">In this file is where we define what screens are to be rendered </tspan><tspan x="33.76" y="7" class="st3 st11">when specific hash locations are specified. </tspan></text>
	<rect x="33.19" y="58.87" class="st2" width="83.4" height="8.69"/>
	<text transform="matrix(0.8541 0 0 1 50.7949 64.4668)" class="st3 st11">parseRequestUrl</text>
	<path class="st12" d="M111.72,79.21H40c-2.67,0-4.86-2.19-4.86-4.86v0c0-2.67,2.19-4.86,4.86-4.86h71.72
		c2.67,0,4.86,2.19,4.86,4.86v0C116.59,77.02,114.4,79.21,111.72,79.21z"/>
	<rect x="33.19" y="71.6" class="st2" width="83.4" height="8.69"/>
	<text transform="matrix(0.8541 0 0 1 54.6723 77.1991)" class="st3 st11">showMessage</text>
	<path class="st12" d="M111.72,91.4H40c-2.67,0-4.86-2.19-4.86-4.86v0c0-2.67,2.19-4.86,4.86-4.86h71.72c2.67,0,4.86,2.19,4.86,4.86
		v0C116.59,89.21,114.4,91.4,111.72,91.4z"/>
	<rect x="34.19" y="83.79" class="st2" width="83.4" height="8.69"/>
	<text transform="matrix(0.8541 0 0 1 44.227 89.3904)" class="st3 st11">showConfirmMessage</text>
	<path class="st9" d="M265.65,184.39h-59.31c-6.6,0-12-5.4-12-12v-24.07c0-6.6,5.4-12,12-12h59.31c6.6,0,12,5.4,12,12v24.07
		C277.65,178.99,272.25,184.39,265.65,184.39z"/>
	<rect x="194.25" y="156.85" class="st2" width="83.4" height="31.61"/>
	<text transform="matrix(0.8541 0 0 1 207.3381 162.4512)"><tspan x="0" y="0" class="st10 st11">Where databases of</tspan><tspan x="2.26" y="7" class="st10 st11">submitted designs</tspan><tspan x="15.06" y="14" class="st10 st11">are shown.</tspan></text>
	<rect x="194.3" y="144.66" class="st2" width="83.4" height="8.69"/>
	<text transform="matrix(0.8541 0 0 1 212.4421 150.261)" class="st3 st11">DESIGN SCREEN</text>
	<path class="st9" d="M132.5,246.02H73.19c-6.6,0-12-5.4-12-12v-24.07c0-6.6,5.4-12,12-12h59.31c6.6,0,12,5.4,12,12v24.07
		C144.5,240.62,139.1,246.02,132.5,246.02z"/>
	<rect x="61.09" y="218.48" class="st2" width="83.4" height="31.61"/>
	<text transform="matrix(0.8541 0 0 1 71.5282 224.0813)"><tspan x="0" y="0" class="st10 st11">User answers a series</tspan><tspan x="7.7" y="7" class="st10 st11">of questions that</tspan><tspan x="-6.09" y="14" class="st10 st11">narrow down their needs</tspan></text>
	<rect x="63.14" y="206.29" class="st2" width="83.4" height="8.69"/>
	<text transform="matrix(0.8541 0 0 1 69.2235 211.8911)" class="st3 st11">SINGLE-FAMILY SCREEN</text>
	<path class="st9" d="M181.77,309.98h-59.31c-6.6,0-12-5.4-12-12V273.9c0-6.6,5.4-12,12-12h59.31c6.6,0,12,5.4,12,12v24.07
		C193.77,304.58,188.37,309.98,181.77,309.98z"/>
	<rect x="110.37" y="279.44" class="st2" width="83.4" height="31.61"/>
	<text transform="matrix(0.8541 0 0 1 128.5244 285.0389)"><tspan x="0" y="0" class="st10 st11">User can upload</tspan><tspan x="-2.38" y="7" class="st10 st11">up to 3 images to</tspan><tspan x="-3.35" y="14" class="st10 st11">disk storage using</tspan><tspan x="15.39" y="21" class="st10 st11">multer.</tspan></text>
	<rect x="110.41" y="270.25" class="st2" width="83.4" height="8.69"/>
	<text transform="matrix(0.8541 0 0 1 120.1338 275.8487)" class="st3 st11">INSPIRATION SCREEN</text>
	<path class="st9" d="M283.23,364.51h-59.31c-6.6,0-12-5.4-12-12v-24.07c0-6.6,5.4-12,12-12h59.31c6.6,0,12,5.4,12,12v24.07
		C295.23,359.11,289.83,364.51,283.23,364.51z"/>
	<rect x="211.82" y="336.97" class="st2" width="83.4" height="31.61"/>
	<text transform="matrix(0.8541 0 0 1 226.2958 342.5736)"><tspan x="0" y="0" class="st10 st11">Gives confirmation</tspan><tspan x="-6.86" y="7" class="st10 st11">to the user that design</tspan><tspan x="-2.94" y="14" class="st10 st11">needs are submitted</tspan></text>
	<rect x="213.87" y="324.78" class="st2" width="83.4" height="8.69"/>
	<text transform="matrix(0.8541 0 0 1 233.1571 330.3834)" class="st3 st11">FINISH SCREEN</text>
	<path class="st13" d="M174.73,455.99h-59.31c-6.6,0-12-5.4-12-12l0,0c0-6.6,5.4-12,12-12h59.31c6.6,0,12,5.4,12,12l0,0
		C186.73,450.59,181.33,455.99,174.73,455.99z"/>
	<rect x="102.38" y="441.33" class="st2" width="83.4" height="8.69"/>
	<text transform="matrix(0.8541 0 0 1 127.195 446.9327)" class="st3 st11">BASIC INFO</text>
	<path class="st13" d="M265.49,455.95h-59.31c-6.6,0-12-5.4-12-12v0c0-6.6,5.4-12,12-12h59.31c6.6,0,12,5.4,12,12v0
		C277.49,450.55,272.09,455.95,265.49,455.95z"/>
	<rect x="196.14" y="440.3" class="st2" width="83.4" height="8.69"/>
	<text transform="matrix(0.8541 0 0 1 210.4981 445.8963)" class="st3 st11">DEFINEROOMINFO</text>
	<path class="st9" d="M168.69,184.31h-59.31c-6.6,0-12-5.4-12-12v-24.07c0-6.6,5.4-12,12-12h59.31c6.6,0,12,5.4,12,12v24.07
		C180.69,178.91,175.29,184.31,168.69,184.31z"/>
	<rect x="97.29" y="155.77" class="st2" width="83.4" height="31.61"/>
	<text transform="matrix(0.8541 0 0 1 104.2441 161.367)"><tspan x="0" y="0" class="st10 st11">Where user inputs basic</tspan><tspan x="3.14" y="7" class="st10 st11">information about the</tspan><tspan x="28.76" y="14" class="st10 st11">project</tspan></text>
	<rect x="97.34" y="144.58" class="st2" width="83.4" height="8.69"/>
	<text transform="matrix(0.8541 0 0 1 117.5576 150.1767)" class="st3 st11">HOME SCREEN</text>
	<path class="st9" d="M228.99,246.47h-59.31c-6.6,0-12-5.4-12-12v-24.07c0-6.6,5.4-12,12-12h59.31c6.6,0,12,5.4,12,12v24.07
		C240.99,241.07,235.59,246.47,228.99,246.47z"/>
	<rect x="157.58" y="218.93" class="st2" width="83.4" height="31.61"/>
	<text transform="matrix(0.8541 0 0 1 168.0171 224.5289)"><tspan x="0" y="0" class="st10 st11">User answers a series</tspan><tspan x="7.7" y="7" class="st10 st11">of questions that</tspan><tspan x="-6.09" y="14" class="st10 st11">narrow down their needs</tspan></text>
	<rect x="159.63" y="206.74" class="st2" width="83.4" height="8.69"/>
	<text transform="matrix(0.8541 0 0 1 170.0923 212.3387)" class="st3 st11">APARTMENT SCREEN</text>
	<path class="st13" d="M219.65,483.02h-59.31c-6.6,0-12-5.4-12-12l0,0c0-6.6,5.4-12,12-12h59.31c6.6,0,12,5.4,12,12l0,0
		C231.65,477.62,226.25,483.02,219.65,483.02z"/>
	<rect x="147.29" y="468.37" class="st2" width="83.4" height="8.69"/>
	<text transform="matrix(0.8541 0 0 1 168.2724 473.9659)" class="st3 st11">INSPOIMAGES</text>
</g>
<g id="Front-End">
</g>
<g id="Arrows">
	<line class="st14" x1="311.65" y1="341.81" x2="311.65" y2="160.27"/>
	<g>
		<g>
			<line class="st14" x1="293.09" y1="341.81" x2="311.65" y2="341.81"/>
			<g>
				<path d="M293.28,345.57c-2.08,0-3.76-1.68-3.76-3.76s1.68-3.76,3.76-3.76c2.08,0,3.76,1.68,3.76,3.76
					S295.35,345.57,293.28,345.57z"/>
			</g>
		</g>
	</g>
	<g>
		<g>
			<line class="st14" x1="179.32" y1="160.35" x2="193.57" y2="160.35"/>
			<g>
				<path d="M179.5,164.11c-2.08,0-3.76-1.68-3.76-3.76s1.68-3.76,3.76-3.76c2.08,0,3.76,1.68,3.76,3.76S181.58,164.11,179.5,164.11
					z"/>
			</g>
			<g>
				<polygon points="192.11,165.34 200.75,160.35 192.11,155.37 				"/>
			</g>
		</g>
	</g>
	<g>
		<g>
			<line class="st14" x1="160.08" y1="220.64" x2="151.44" y2="220.64"/>
			<g>
				<path d="M159.89,216.88c2.08,0,3.76,1.68,3.76,3.76c0,2.08-1.68,3.76-3.76,3.76c-2.08,0-3.76-1.68-3.76-3.76
					C156.13,218.57,157.82,216.88,159.89,216.88z"/>
			</g>
		</g>
	</g>
	<g>
		<g>
			<line class="st14" x1="150.88" y1="220.64" x2="150.88" y2="260.71"/>
			<g>
				<polygon points="145.9,259.25 150.88,267.89 155.87,259.25 				"/>
			</g>
		</g>
	</g>
	<g>
		<g>
			<line class="st14" x1="194.86" y1="341.81" x2="207.85" y2="341.81"/>
			<g>
				<path d="M195.04,345.57c-2.08,0-3.76-1.68-3.76-3.76s1.68-3.76,3.76-3.76c2.08,0,3.76,1.68,3.76,3.76
					S197.12,345.57,195.04,345.57z"/>
			</g>
			<g>
				<polygon points="206.39,346.79 215.02,341.81 206.39,336.82 				"/>
			</g>
		</g>
	</g>
	<g>
		<g>
			<line class="st14" x1="99.71" y1="177.05" x2="82.89" y2="177.05"/>
			<g>
				<path d="M99.52,173.29c2.08,0,3.76,1.68,3.76,3.76s-1.68,3.76-3.76,3.76c-2.08,0-3.76-1.68-3.76-3.76S97.44,173.29,99.52,173.29
					z"/>
			</g>
		</g>
	</g>
	<g>
		<g>
			<line class="st14" x1="82.89" y1="177.05" x2="83.21" y2="196.22"/>
			<g>
				<polygon points="78.2,194.85 83.34,203.4 88.18,194.68 				"/>
			</g>
		</g>
	</g>
	<g>
		<g>
			<line class="st14" x1="173.69" y1="175.66" x2="187.98" y2="175.66"/>
			<g>
				<path d="M173.87,179.42c-2.08,0-3.76-1.68-3.76-3.76c0-2.08,1.68-3.76,3.76-3.76c2.08,0,3.76,1.68,3.76,3.76
					C177.63,177.73,175.95,179.42,173.87,179.42z"/>
			</g>
		</g>
	</g>
	<g>
		<g>
			<line class="st14" x1="187.47" y1="175.66" x2="187.8" y2="195.64"/>
			<g>
				<polygon points="182.79,194.26 187.92,202.81 192.76,194.1 				"/>
			</g>
		</g>
	</g>
	<g>
		<g>
			<line class="st14" x1="141.75" y1="220.64" x2="153.3" y2="220.64"/>
			<g>
				<path d="M141.93,224.4c-2.08,0-3.76-1.68-3.76-3.76s1.68-3.76,3.76-3.76c2.08,0,3.76,1.68,3.76,3.76S144.01,224.4,141.93,224.4z
					"/>
			</g>
		</g>
	</g>
	<g>
		<g>
			<line class="st14" x1="311.65" y1="160.27" x2="273.73" y2="160.27"/>
			<g>
				<polygon points="275.19,155.28 266.56,160.27 275.19,165.26 				"/>
			</g>
		</g>
	</g>
	<g>
		<g>
			<line class="st14" x1="174.34" y1="308.28" x2="174.34" y2="315.79"/>
			<g>
				<path d="M170.58,308.47c0-2.08,1.68-3.76,3.76-3.76s3.76,1.68,3.76,3.76c0,2.08-1.68,3.76-3.76,3.76
					S170.58,310.55,170.58,308.47z"/>
			</g>
			<g>
				<polygon points="169.36,314.33 174.34,322.96 179.33,314.33 				"/>
			</g>
		</g>
	</g>
	<g>
		<g>
			<line class="st14" x1="53.54" y1="362.04" x2="53.54" y2="441.33"/>
			<g>
				<path d="M49.78,362.22c0-2.08,1.68-3.76,3.76-3.76s3.76,1.68,3.76,3.76c0,2.08-1.68,3.76-3.76,3.76S49.78,364.3,49.78,362.22z"
					/>
			</g>
		</g>
	</g>
	<g>
		<g>
			<line class="st14" x1="284.1" y1="442.3" x2="315.03" y2="442.3"/>
			<g>
				<path d="M284.29,446.06c-2.08,0-3.76-1.68-3.76-3.76c0-2.08,1.68-3.76,3.76-3.76s3.76,1.68,3.76,3.76
					C288.05,444.37,286.37,446.06,284.29,446.06z"/>
			</g>
		</g>
	</g>
	<g>
		<g>
			<line class="st14" x1="315.03" y1="442.3" x2="315.03" y2="359.96"/>
			<g>
				<polygon points="320.01,361.41 315.03,352.78 310.04,361.41 				"/>
			</g>
		</g>
	</g>
	<g>
		<g>
			<line class="st14" x1="52.82" y1="441.33" x2="92.04" y2="441.33"/>
			<g>
				<polygon points="90.58,446.32 99.22,441.33 90.58,436.35 				"/>
			</g>
		</g>
	</g>
</g>
</svg>
