<?xml version="1.0" encoding="utf-8"?>
<!-- Generator: Adobe Illustrator 23.0.1, SVG Export Plug-In . SVG Version: 6.00 Build 0)  -->
<svg version="1.1" id="Layer_1" xmlns="http://www.w3.org/2000/svg" xmlns:xlink="http://www.w3.org/1999/xlink" x="0px" y="0px"
	 viewBox="0 0 401.62 278.77" style="enable-background:new 0 0 401.62 278.77;" xml:space="preserve">
<style type="text/css">
	.st0{fill:#F1D21B;}
	.st1{fill:none;stroke:#000000;stroke-miterlimit:10;stroke-dasharray:6.0091,6.0091;}
	.st2{fill:#D14B15;stroke:#000000;stroke-miterlimit:10;}
	.st3{fill:none;}
	.st4{font-family:'PTSans-Regular';}
	.st5{font-size:14.0494px;}
	.st6{fill:#B29D46;stroke:#000000;stroke-miterlimit:10;}
	.st7{font-size:10px;}
	.st8{fill:#EDCE7A;stroke:#000000;stroke-miterlimit:10;}
	.st9{fill:#EA8F3D;stroke:#000000;stroke-miterlimit:10;}
	.st10{fill:#B26044;stroke:#000000;stroke-miterlimit:10;}
	.st11{fill:#896349;stroke:#000000;stroke-miterlimit:10;}
	.st12{fill:#776415;}
	.st13{fill:none;stroke:#000000;stroke-miterlimit:10;stroke-dasharray:5.9589,5.9589;}
	.st14{fill:#AAA89F;}
	.st15{fill:#FFFFFF;}
	.st16{fill:#B27044;}
	.st17{fill:none;stroke:#000000;stroke-miterlimit:10;stroke-dasharray:5.9692,5.9692;}
	.st18{fill:#A7AF45;}
	.st19{fill:none;stroke:#000000;stroke-miterlimit:10;stroke-dasharray:6.057,6.057;}
	.st20{fill:none;stroke:#000000;stroke-miterlimit:10;}
</style>
<g>
	<path class="st0" d="M267.61,269.35H34.06c-6.6,0-12-5.4-12-12V23.8c0-6.6,5.4-12,12-12h233.55c6.6,0,12,5.4,12,12v233.55
		C279.61,263.95,274.21,269.35,267.61,269.35z"/>
	<path class="st1" d="M267.61,269.35H34.06c-6.6,0-12-5.4-12-12V23.8c0-6.6,5.4-12,12-12h233.55c6.6,0,12,5.4,12,12v233.55
		C279.61,263.95,274.21,269.35,267.61,269.35z"/>
</g>
<path class="st2" d="M250.37,260.11H45.04c-6.6,0-12-5.4-12-12v-11.99c0-6.6,5.4-12,12-12h205.33c6.6,0,12,5.4,12,12v11.99
	C262.37,254.71,256.97,260.11,250.37,260.11z"/>
<rect x="131.6" y="19.78" class="st3" width="34.21" height="15.23"/>
<text transform="matrix(0.8541 0 0 1 131.5979 29.614)" class="st4 st5">App.js</text>
<path class="st6" d="M252.03,77.59H46.7c-6.6,0-12-5.4-12-12V49.34c0-6.6,5.4-12,12-12h205.33c6.6,0,12,5.4,12,12v16.25
	C264.03,72.19,258.63,77.59,252.03,77.59z"/>
<rect x="39.04" y="60.72" class="st3" width="84.37" height="11.66"/>
<text transform="matrix(0.8541 0 0 1 39.0421 67.7239)" class="st4 st7">chooseContinentInput</text>
<rect x="136.86" y="60.72" class="st3" width="43.86" height="11.66"/>
<text transform="matrix(0.8541 0 0 1 136.8613 67.7239)" class="st4 st7">handleClick</text>
<rect x="208.91" y="60.72" class="st3" width="43.86" height="11.66"/>
<text transform="matrix(0.8541 0 0 1 208.914 67.7239)" class="st4 st7">render: &lt;&gt;</text>
<path class="st8" d="M252.03,122.73H46.7c-6.6,0-12-5.4-12-12V95.56c0-6.6,5.4-12,12-12h205.33c6.6,0,12,5.4,12,12v15.17
	C264.03,117.33,258.63,122.73,252.03,122.73z"/>
<rect x="112.79" y="89.14" class="st3" width="69.82" height="15.23"/>
<text transform="matrix(0.8541 0 0 1 112.7917 98.9779)" class="st4 st5">Experience.js</text>
<path class="st9" d="M252.03,176.6H46.7c-6.6,0-12-5.4-12-12v-23.57c0-6.6,5.4-12,12-12h205.33c6.6,0,12,5.4,12,12v23.57
	C264.03,171.2,258.63,176.6,252.03,176.6z"/>
<rect x="118.45" y="228.35" class="st3" width="72.68" height="15.23"/>
<text transform="matrix(0.8541 0 0 1 118.4517 238.1843)" class="st4 st5">Decision.js</text>
<rect x="118.4" y="134.46" class="st3" width="66.59" height="15.23"/>
<text transform="matrix(0.8541 0 0 1 118.4041 144.2928)" class="st4 st5">CitySelect.js</text>
<rect x="45.34" y="107.37" class="st3" width="86.26" height="11.66"/>
<text transform="matrix(0.8541 0 0 1 45.3375 114.3682)" class="st4 st7">chooseExperienceInput</text>
<rect x="208.91" y="106.9" class="st3" width="43.86" height="11.66"/>
<text transform="matrix(0.8541 0 0 1 208.914 113.8957)" class="st4 st7">render: &lt;&gt;</text>
<path class="st10" d="M252.03,217.82H46.7c-6.6,0-12-5.4-12-12v-11.82c0-6.6,5.4-12,12-12h205.33c6.6,0,12,5.4,12,12v11.82
	C264.03,212.42,258.63,217.82,252.03,217.82z"/>
<rect x="124.91" y="187.05" class="st3" width="53.58" height="15.23"/>
<text transform="matrix(0.8541 0 0 1 124.9135 196.8886)" class="st4 st5">Places.js</text>
<rect x="117.14" y="43.5" class="st3" width="69.11" height="15.23"/>
<text transform="matrix(0.8541 0 0 1 117.1446 53.3331)" class="st4 st5">MapSelect.js</text>
<rect x="186.68" y="162.2" class="st3" width="43.86" height="11.66"/>
<text transform="matrix(0.8541 0 0 1 186.6813 169.2031)" class="st4 st7">render: &lt;&gt;</text>
<rect x="44.98" y="201.68" class="st3" width="78.43" height="11.66"/>
<text transform="matrix(0.8541 0 0 1 44.9834 208.6797)" class="st4 st7">componentDidMount</text>
<rect x="208.56" y="201.68" class="st3" width="43.86" height="11.66"/>
<text transform="matrix(0.8541 0 0 1 208.56 208.6792)" class="st4 st7">render: &lt;&gt;</text>
<rect x="207.56" y="243.98" class="st3" width="43.86" height="11.66"/>
<text transform="matrix(0.8541 0 0 1 207.56 250.9766)" class="st4 st7">render: &lt;&gt;</text>
<path class="st11" d="M136.15,172.85H51.04c-6.6,0-12-5.4-12-12v0c0-6.6,5.4-12,12-12h85.11c6.6,0,12,5.4,12,12v0
	C148.15,167.45,142.75,172.85,136.15,172.85z"/>
<rect x="66.79" y="155.59" class="st3" width="66.59" height="15.23"/>
<text transform="matrix(0.8541 0 0 1 66.794 165.4255)" class="st4 st5">Weather.js</text>
<g>
	<path class="st12" d="M381.12,130.5h-78.66c-6.6,0-12-5.4-12-12V26.26c0-6.6,5.4-12,12-12h78.66c6.6,0,12,5.4,12,12v92.24
		C393.12,125.1,387.72,130.5,381.12,130.5z"/>
	<path class="st13" d="M381.12,130.5h-78.66c-6.6,0-12-5.4-12-12V26.26c0-6.6,5.4-12,12-12h78.66c6.6,0,12,5.4,12,12v92.24
		C393.12,125.1,387.72,130.5,381.12,130.5z"/>
</g>
<rect x="316.92" y="21.12" class="st3" width="56.97" height="15.23"/>
<text transform="matrix(0.8541 0 0 1 316.9186 30.951)" class="st14 st4 st5">Postgresql</text>
<rect x="306.84" y="44.28" class="st3" width="70.54" height="75.79"/>
<text transform="matrix(0.8541 0 0 1 306.8424 51.2818)"><tspan x="0" y="0" class="st15 st4 st7">id</tspan><tspan x="0" y="12" class="st15 st4 st7">city_name</tspan><tspan x="0" y="24" class="st15 st4 st7">continent</tspan><tspan x="0" y="36" class="st15 st4 st7">type_of_experience</tspan><tspan x="0" y="48" class="st15 st4 st7">places</tspan><tspan x="0" y="60" class="st15 st4 st7">places_description</tspan></text>
<rect x="147.84" y="106.9" class="st3" width="43.86" height="11.66"/>
<text transform="matrix(0.8541 0 0 1 147.8387 113.8957)" class="st4 st7">handleClick</text>
<rect x="175.45" y="149.76" class="st3" width="62.5" height="11.66"/>
<text transform="matrix(0.8541 0 0 1 175.4499 156.7611)" class="st4 st7">chooseSelectCity</text>
<rect x="137.86" y="201.26" class="st3" width="43.86" height="11.66"/>
<text transform="matrix(0.8541 0 0 1 137.8613 208.2644)" class="st4 st7">handleClick</text>
<rect x="44.98" y="243.98" class="st3" width="78.43" height="11.66"/>
<text transform="matrix(0.8541 0 0 1 44.9834 250.9771)" class="st4 st7">componentDidMount</text>
<rect x="126.27" y="243.98" class="st3" width="78.43" height="11.66"/>
<text transform="matrix(0.8541 0 0 1 126.2717 250.9771)" class="st4 st7">chooseDecisionInput</text>
<g>
	<path class="st16" d="M381.12,246.37h-78.66c-6.6,0-12-5.4-12-12v-9.03c0-6.6,5.4-12,12-12h78.66c6.6,0,12,5.4,12,12v9.03
		C393.12,240.97,387.72,246.37,381.12,246.37z"/>
	<path class="st17" d="M381.12,246.37h-78.66c-6.6,0-12-5.4-12-12v-9.03c0-6.6,5.4-12,12-12h78.66c6.6,0,12,5.4,12,12v9.03
		C393.12,240.97,387.72,246.37,381.12,246.37z"/>
</g>
<rect x="323.85" y="224.95" class="st3" width="39.1" height="15.23"/>
<text transform="matrix(0.8541 0 0 1 323.85 234.7887)" class="st4 st5">Heroku</text>
<g>
	<path class="st18" d="M381.44,197.95h-78.66c-6.6,0-12-5.4-12-12V156.9c0-6.6,5.4-12,12-12h78.66c6.6,0,12,5.4,12,12v29.05
		C393.44,192.55,388.04,197.95,381.44,197.95z"/>
	<path class="st19" d="M381.44,197.95h-78.66c-6.6,0-12-5.4-12-12V156.9c0-6.6,5.4-12,12-12h78.66c6.6,0,12,5.4,12,12v29.05
		C393.44,192.55,388.04,197.95,381.44,197.95z"/>
</g>
<rect x="324.17" y="156.52" class="st3" width="39.1" height="15.23"/>
<text transform="matrix(0.8541 0 0 1 324.1723 166.3553)" class="st4 st5">Node.js</text>
<rect x="324.17" y="174.39" class="st3" width="42.17" height="15.23"/>
<text transform="matrix(0.8541 0 0 1 324.1723 184.2271)" class="st4 st5">Express</text>
<g>
	<g>
		<line class="st20" x1="297.2" y1="172.36" x2="273.21" y2="172.36"/>
		<g>
			<path d="M297.01,168.6c2.08,0,3.76,1.68,3.76,3.76c0,2.08-1.68,3.76-3.76,3.76c-2.08,0-3.76-1.68-3.76-3.76
				C293.25,170.28,294.94,168.6,297.01,168.6z"/>
		</g>
		<g>
			<polygon points="274.67,167.37 266.03,172.36 274.67,177.34 			"/>
		</g>
	</g>
</g>
<g>
	<g>
		<line class="st20" x1="271.98" y1="229.85" x2="295.97" y2="229.85"/>
		<g>
			<path d="M272.17,233.61c-2.08,0-3.76-1.68-3.76-3.76c0-2.08,1.68-3.76,3.76-3.76c2.08,0,3.76,1.68,3.76,3.76
				C275.93,231.93,274.24,233.61,272.17,233.61z"/>
		</g>
		<g>
			<polygon points="294.51,234.84 303.15,229.85 294.51,224.87 			"/>
		</g>
	</g>
</g>
<g>
	<g>
		<line class="st20" x1="341.79" y1="119.77" x2="341.79" y2="149.7"/>
		<g>
			<path d="M338.03,119.96c0-2.08,1.68-3.76,3.76-3.76s3.76,1.68,3.76,3.76c0,2.08-1.68,3.76-3.76,3.76S338.03,122.04,338.03,119.96
				z"/>
		</g>
		<g>
			<polygon points="336.8,148.24 341.79,156.87 346.77,148.24 			"/>
		</g>
	</g>
</g>
</svg>
